<svg xmlns="http://www.w3.org/2000/svg" xmlns:xlink="http://www.w3.org/1999/xlink" id="Layer_1" data-name="Layer 1" viewBox="0 0 1500 1500"><defs><style>.cls-1{fill:url(#linear-gradient);}.cls-2,.cls-3{fill:#1b2e51;}.cls-3{font-size:114.89px;font-family:Didot-HTF-M64-Medium-Ital, Didot;font-style:italic;letter-spacing:-0.06em;}.cls-4{letter-spacing:0em;}</style><linearGradient id="linear-gradient" x1="987.99" y1="241.67" x2="611.2" y2="979.97" gradientUnits="userSpaceOnUse"><stop offset="0" stop-color="#ffae00"></stop><stop offset="1" stop-color="#ec8020"></stop></linearGradient></defs><path class="cls-1" d="M1012.49,545.29c-28.74-56.5-66-108.67-102.12-159.13-24.35-34.06-49.53-69.27-71.43-105-13.85-22.62-27.26-45.87-39.83-69.1-10-18.54-31.71-59.77-31.93-60.18l-19.33-36.78-19,36.94c-.27.53-27.51,53.4-30.69,59.91-8.54,17.45-30,54.92-40.92,71.6-19.9,30.27-40,58.62-59.47,86.1-45.23,63.81-87.94,124.08-123.6,200.76-43.95,94.52-35.27,217.69,13.61,309.54,65.47,123,281.92,191.82,336.7,19.77,14.84-46.6,6.34-98.11-13.28-142.9s-49.63-84.1-79.35-122.94c37.51,40.31,75.61,81.47,99.14,131.25s30.6,110.46,5.07,159.24c52-29.65,66.11-101.47,49.49-159s-56.33-105-92-153.09c-16.06-21.68-32-45.1-34.92-71.91s11.64-57.5,38-63.36c19.84-4.41,40.68,6.46,53.35,22.35s18.66,36,23.33,55.79c8-46.39-19.37-95.86-61.93-116s-96.52-11-131.88,20.12-51.42,81.68-43.19,128c7.51,42.3,32.89,79,58.93,113.19s53.92,68.22,67.9,108.84,11.06,90.29-19.24,120.74c-25.94,26.06-67.14,32.64-102.75,23.48C538.42,927.11,486.21,818.46,485.81,720c-.18-44.16,8.28-88.7,26.46-129l1.08-2.36c34-73.11,75.6-131.81,119.67-194,19.65-27.74,40-56.41,60.32-87.35C705.24,289.19,727.67,250,737,231c1-2,4.86-9.62,11.33-22.24,5.49,10.34,9.78,18.37,12.78,23.92,12.95,23.91,26.73,47.83,41,71.1,22.7,37.06,48.33,72.91,73.13,107.6,35.15,49.15,71.49,100,98.75,153.57,30.06,59.1,42.52,125.16,35.08,186-8.15,66.61-39.71,121.62-91.26,159.07-2.76,2-5.61,4-8.47,5.89a264.93,264.93,0,0,1-32.19,18.27,57.92,57.92,0,0,0-32.71,52v6.47l6.19-1.9a317.07,317.07,0,0,0,82.67-38.85c3.37-2.24,6.71-4.56,9.93-6.9,61.51-44.68,99.12-110,108.76-188.8C1060.43,686.87,1046.41,612,1012.49,545.29Z"></path><path class="cls-2" d="M434.18,1245.34a57,57,0,0,1-27.5,32.61q-10.35,5.63-24.42,5.63a45,45,0,0,1-12.78-1.67,99.87,99.87,0,0,1-10.23-3.58q-4.61-1.92-8.06-3.58a15.16,15.16,0,0,0-6.52-1.66,12.9,12.9,0,0,0-8.7,3.07,12.27,12.27,0,0,0-4.34,6.65c0,.34-.77.51-2.3.51-1.37,0-2.05-.17-2.05-.51V1224.5c0-.34.68-.51,2.05-.51,1.53,0,2.3.17,2.3.51a48.71,48.71,0,0,0,3.59,17.14,63.34,63.34,0,0,0,10.25,17.64,59.76,59.76,0,0,0,15.9,13.68,39.8,39.8,0,0,0,20.78,5.5,46.62,46.62,0,0,0,18-3.19,42.07,42.07,0,0,0,12.95-8.17,32.82,32.82,0,0,0,10.38-23.63q0-9.18-2.94-15.32a28.85,28.85,0,0,0-9.24-10.72,78.08,78.08,0,0,0-16.15-8.68q-9.89-4.1-23.47-9.46a102.8,102.8,0,0,1-15.64-7.65,54.86,54.86,0,0,1-12.57-10.35A44,44,0,0,1,335,1167a56.21,56.21,0,0,1-3.08-19.54,60.24,60.24,0,0,1,3.58-20.81,57.74,57.74,0,0,1,9.59-17.11,47.13,47.13,0,0,1,14.07-11.62,35.35,35.35,0,0,1,17-4.34,41.59,41.59,0,0,1,10.11,1,38.6,38.6,0,0,1,6.9,2.43q2.94,1.41,5.37,2.43a14.81,14.81,0,0,0,5.75,1c3.59,0,6-.68,7.29-2a9.49,9.49,0,0,0,2.43-4.09c0-.34.77-.52,2.3-.52s2.31.18,2.31.52v44q0,.51-2.31.51c-1.53,0-2.3-.17-2.3-.51a42,42,0,0,0-3.07-16.49,37.08,37.08,0,0,0-20.33-20.33,36.59,36.59,0,0,0-14.19-2.82,30.45,30.45,0,0,0-12.79,2.69,34.68,34.68,0,0,0-10.23,7,30.72,30.72,0,0,0-6.77,10.36,32.8,32.8,0,0,0-2.43,12.4,29,29,0,0,0,2.56,12.4,31.19,31.19,0,0,0,7.92,10.23,66.26,66.26,0,0,0,13.56,9,198.58,198.58,0,0,0,19.43,8.57,202.12,202.12,0,0,1,20.72,9.08,64.28,64.28,0,0,1,15.72,11.12,44.17,44.17,0,0,1,10,14.71q3.45,8.31,3.45,20.07A61.17,61.17,0,0,1,434.18,1245.34Z"></path><path class="cls-2" d="M515,1218a55.11,55.11,0,0,0-1.27,7.29H456.17q-.53,0,0-1a21.86,21.86,0,0,0,2.17-5.76c.42-2,.81-4.38,1.15-7.29h58c.34,0,.34.35,0,1A20.6,20.6,0,0,0,515,1218Z"></path><path class="cls-2" d="M670.21,1175.79a47.1,47.1,0,0,1-12.4,16.49A58,58,0,0,1,638.37,1203a79.29,79.29,0,0,1-25.44,3.84,85.86,85.86,0,0,1-13.17-.9,104.41,104.41,0,0,1-10.62-2.17v69.3c0,.68.52,1,1.54,1h20.71c.34,0,.51.86.51,2.56s-.17,2.56-.51,2.56H538.51c-.17,0-.26-.85-.26-2.56s.09-2.56.26-2.56h21.23c.85,0,1.27-.34,1.27-1v-169c0-.68-.42-1-1.27-1H538.51c-.17,0-.26-.85-.26-2.56s.09-2.55.26-2.55h70.07q16.11,0,28.39,4.47a60.45,60.45,0,0,1,20.58,12.15,51.24,51.24,0,0,1,12.66,18,56.53,56.53,0,0,1,4.35,22.12A50.51,50.51,0,0,1,670.21,1175.79ZM644.13,1131a44.63,44.63,0,0,0-7.93-16.11,30,30,0,0,0-12.15-9.08,41.39,41.39,0,0,0-15.47-2.81h-17.9c-1,0-1.54.34-1.54,1v93.6a34.27,34.27,0,0,0,10.75,3.33,97.8,97.8,0,0,0,13,.76,44.89,44.89,0,0,0,14.7-2.17,23.36,23.36,0,0,0,10.62-7.55q4.34-5.37,6.52-14.44t2.17-22.89A87.18,87.18,0,0,0,644.13,1131Z"></path><path class="cls-2" d="M832.85,1103a.9.9,0,0,0-1,1v121.48a81.3,81.3,0,0,1-3.32,24,44.63,44.63,0,0,1-28.26,29.92q-10.87,4.1-25.7,4.1a83,83,0,0,1-24.55-3.46,51.08,51.08,0,0,1-19.31-10.61,48.67,48.67,0,0,1-12.53-17.77q-4.49-10.6-4.48-24.94V1104.05c0-.68-.42-1-1.28-1h-21c-.34,0-.51-.85-.51-2.56s.17-2.55.51-2.55h72.38q.51,0,.51,2.55c0,1.71-.17,2.56-.51,2.56H743.09c-1.19,0-1.79.34-1.79,1V1226.8q0,26.35,10,38t29.4,11.64q12,0,20.72-3.71a37.81,37.81,0,0,0,14.32-10.36,42.51,42.51,0,0,0,8.31-16.11,75.66,75.66,0,0,0,2.69-20.71V1104.05c0-.68-.43-1-1.28-1H807c-.34,0-.51-.85-.51-2.56s.17-2.55.51-2.55h47.06q.51,0,.51,2.55c0,1.71-.17,2.56-.51,2.56Z"></path><path class="cls-2" d="M1027.85,1281a29.39,29.39,0,0,1-12.92,2.56,38.92,38.92,0,0,1-14.06-2.56,28.68,28.68,0,0,1-11.64-8.44,43.19,43.19,0,0,1-7.92-15.34q-3-9.46-2.95-23.28v-16.62a33.46,33.46,0,0,0-2.68-14.19,22.56,22.56,0,0,0-7.67-9.21,33.41,33.41,0,0,0-11.77-5,66.12,66.12,0,0,0-14.7-1.54H920.82v85.67q0,1,1.8,1h24.55v5.12H870.45c-.35,0-.52-.85-.52-2.56s.17-2.56.52-2.56h21q1.53,0,1.53-1v-169q0-1-1.53-1h-21c-.35,0-.52-.85-.52-2.56s.17-2.55.52-2.55h72.62a76,76,0,0,1,23.79,3.45,54.39,54.39,0,0,1,17.77,9.46,42.25,42.25,0,0,1,11.25,14.07,39.16,39.16,0,0,1,4,17.51,35.75,35.75,0,0,1-4,16.63,45.82,45.82,0,0,1-10.48,13.42,49.67,49.67,0,0,1-15.09,9.08,48.64,48.64,0,0,1-17.77,3.32,69.73,69.73,0,0,1,23.78,3.71,46.55,46.55,0,0,1,17,10.36,43.36,43.36,0,0,1,10.23,15.73,55.13,55.13,0,0,1,3.46,19.82v23q0,9.72,4,14.2a13.47,13.47,0,0,0,10.61,4.47,17.83,17.83,0,0,0,7.16-1.15,18.78,18.78,0,0,0,5.37-4c.17-.17.73.34,1.67,1.53s1.23,1.88.89,2.05A30.06,30.06,0,0,1,1027.85,1281Zm-58.44-157.4a30.25,30.25,0,0,0-6.64-12.41,23.12,23.12,0,0,0-10.75-6.39,54.26,54.26,0,0,0-14.57-1.79H922.62q-1.8,0-1.8,1v78.26h20.72a59,59,0,0,0,14.58-1.54,17.3,17.3,0,0,0,9.33-5.75q3.45-4.21,4.86-11.77a112.8,112.8,0,0,0,1.41-19.81Q971.72,1131.41,969.41,1123.62Z"></path><path class="cls-2" d="M1172,1279.23H1037.44c-.17,0-.26-.85-.26-2.56s.09-2.56.26-2.56h21q1.53,0,1.53-1v-169q0-1-1.53-1h-21c-.17,0-.26-.85-.26-2.56s.09-2.55.26-2.55h122.49c.34,0,.52.25.52.76V1147q0,.51-2.31.51c-1.53,0-2.3-.17-2.3-.51a60.4,60.4,0,0,0-2.3-16.88,39.34,39.34,0,0,0-7.16-13.94,34.27,34.27,0,0,0-12.79-9.59q-7.92-3.58-18.92-3.58h-25.06c-1.37,0-2,.34-2,1v79.54h7.93q14.58,0,22.12-7.93t7.54-21.23c0-.34.68-.51,2-.51,1.53,0,2.3.17,2.3.51v63.42c0,.35-.77.51-2.3.51-1.37,0-2-.16-2-.51q0-13-7.54-21.09t-22.12-8.06h-7.93v84.39c0,.68.68,1,2,1h25.83q14.57,0,24.67-4a40.59,40.59,0,0,0,25.19-26.34,61.39,61.39,0,0,0,2.82-18.8c0-.34.76-.51,2.3-.51s2.3.17,2.3.51v53.45A.68.68,0,0,1,1172,1279.23Z"></path><text class="cls-3" transform="translate(428.42 1406.15)">J<tspan class="cls-4" x="58.25" y="0">ust Goodness</tspan></text></svg>